<svg id="Слой_1" data-name="Слой 1" xmlns="http://www.w3.org/2000/svg" viewBox="0 0 142.9 142.63"><defs><style>.cls-1{fill:none;stroke:#1d1d1b;stroke-miterlimit:22.93;stroke-width:0.22px;}</style></defs><title>koleso</title><path class="cls-1" d="M482.41,551.89a51.7,51.7,0,0,0,6.45-.77v-0.84l5.62-1.23-0.24.77a51.26,51.26,0,0,0,6.06-2.23l-0.19-.78,5.15-2.57,0,0.85a51.79,51.79,0,0,0,5.41-3.6l-0.36-.69,4.38-3.72,0.16,0.87a51.83,51.83,0,0,0,4.46-4.75l-0.49-.56,3.37-4.66,0.37,0.82a51.74,51.74,0,0,0,3.27-5.69l-0.67-.52,2.41-5.22L528,518a51.2,51.2,0,0,0,1.81-6.17L529,511.5l1-5.66,0.64,0.54a52,52,0,0,0,.35-6c0-.14,0-0.29,0-0.43l-0.74-.12-0.41-5.74,0.82,0.39a51.44,51.44,0,0,0-1.16-6.46l-0.83,0-1.55-5.54,0.77,0.19a51.13,51.13,0,0,0-2.58-5.91l-0.77.23-2.85-5h0.85a51.86,51.86,0,0,0-3.9-5.19l-0.67.4-4-4.17,0.86-.21a51.94,51.94,0,0,0-5-4.17l-0.54.53-4.84-3.1,0.8-.42a51.23,51.23,0,0,0-5.84-2.92l-0.38.61-5.45-1.84,0.7-.62a51.46,51.46,0,0,0-6.41-1.49l-0.28.77-5.71-.71,0.5-.67c-1-.06-2-0.09-3-0.09s-2.3,0-3.43.12l-0.07.75-5.7.75,0.35-.85A51,51,0,0,0,464.2,451l0.09,0.83-5.44,1.87,0.15-.77a51.56,51.56,0,0,0-5.75,2.93l0.28,0.76-4.82,3.13,0-.84a51.72,51.72,0,0,0-5,4.19l0.44,0.66-3.94,4.19-0.26-.84a51.8,51.8,0,0,0-3.87,5.23l0.57,0.52-2.83,5-0.47-.78a51.38,51.38,0,0,0-2.57,6l0.64,0.34L429.9,489l-0.67-.67a51.35,51.35,0,0,0-1.12,6.49l0.77,0.23-0.37,5.74-0.7-.46v0a52,52,0,0,0,.4,6.42l0.76,0,1.08,5.65-0.87-.3a51.27,51.27,0,0,0,1.89,6.25l0.69-.15,2.44,5.21-1-.08a51.44,51.44,0,0,0,3.32,5.71l0.74-.32,3.4,4.64-0.82.1a52,52,0,0,0,4.47,4.69l0.63-.48,4.41,3.7-0.81.3a51.66,51.66,0,0,0,5.44,3.56l0.48-.6,5.16,2.54-0.74.51a51.24,51.24,0,0,0,6.13,2.21l0.31-.66,5.63,1.19-0.63.71a51.66,51.66,0,0,0,6.55.74l0.18-.78,5.75,0-0.42.72h0Zm-3-3.4a48.18,48.18,0,1,0-48.18-48.18,48.19,48.19,0,0,0,48.18,48.18h0Zm9.43,1.75,0,4.4,4.19-.91,1.47-4.71m-17.42,2.08-1,4.29,4.29,0,2.47-4.28m-17.48-1.9-1.85,4,4.2,0.89,3.28-3.69m-16.48-5.78-2.77,3.42,3.85,1.89,4.09-2.77M445,537.7l-3.51,2.65,3.29,2.76,4.63-1.71m-12.08-12.65-4,1.74,2.54,3.46,4.91-.57m-8.94-15.16-4.3.93,1.82,3.89,4.92,0.4M429,506.77l-4.4-.16,0.81,4.21,4.67,1.6M428.89,495l-4.22-1.26L424.39,498l4.12,2.72m2.9-17.34-3.88-2.08-1.13,4.14,3.49,3.49m6.74-16.12-3.25-3-2.11,3.74,2.54,4.24m10.33-14.11-2.45-3.65-2.94,3.13,1.45,4.72m13.32-11.33L452,452.44l-3.6,2.34,0.29,4.93m15.59-7.91-0.46-4.38-4.06,1.39-0.92,4.85m17.1-4.12,0.42-4.38-4.25.56-1.87,4.57m17.45-.14L489.2,446l-4.26-.53-3,4m17.15,3.9,2.3-3.75-4.07-1.37-3.69,3.28m15.7,7.67,3.14-3.08-3.61-2.32-4.37,2.29M518,467.19l3.79-2.24-3-3.11L514.08,463m10.54,14,4.21-1.28L526.71,472h-4.94m7,16,4.4-.21L532,483.66l-4.79-1.2m3.13,17.3,4.35,0.68-0.3-4.28L529.93,494M529,511.46l4,1.75,0.78-4.22-3.77-3.18m-5,16.75,3.49,2.69,1.8-3.9-2.87-4m-8.75,15.28,2.9,3.31,2.52-3.48-2-4.5m-11.89,12.83,2,3.91,3.27-2.78-0.91-4.85m-14.54,9.72,1,4.28,3.84-1.91,0.27-4.93m-41.75,5.21-3.64,7.64c3,0.66,3.28.76,6.25,1.42l6.36-7m-19.8-7-5.37,6.46c2.72,1.37,3,1.54,5.71,2.92l8-5.28m-17.72-11.45-6.72,5c2.31,2,2.53,2.21,4.84,4.2l9.07-3.24m-14.67-15.24-7.67,3.2c1.77,2.48,1.93,2.75,3.7,5.23l9.64-1m-10.86-18.34-8.29,1.68c1.26,2.77,1.36,3.08,2.62,5.85l9.37,0.87m-6.18-20.07-8.35-.41c0.53,3,.56,3.32,1.09,6.31l8.94,3.18m-1.42-21-7.87-2.46c-0.24,3-.29,3.35-0.53,6.39l8,5.4m3.47-21-7.31-4c-0.84,2.92-1,3.22-1.8,6.15l6.55,6.72M437,471l-6-5.65c-1.53,2.63-1.72,2.89-3.25,5.52l4.74,8.17m12.45-17-4.48-6.88c-2.11,2.19-2.36,2.4-4.47,4.59l2.66,9.09m16.05-13.75-2.69-7.7c-2.58,1.62-2.86,1.77-5.44,3.39q0.21,4.75.42,9.51m18.81-9.71-0.74-8.07c-2.89.95-3.21,1-6.1,2l-1.92,9.4m20.71-5.12,0.9-8.16c-3,.35-3.34.36-6.37,0.71l-3.66,8.58m21-.16,2.89-7.57c-3-.42-3.33-0.5-6.34-0.92l-5.79,7.5m20.73,4.73,4.43-7c-2.87-1-3.16-1.15-6-2.17l-7,6.06m18.84,9.33,5.95-5.65c-2.54-1.68-2.79-1.89-5.32-3.57l-8.34,4.2m16.23,13.45,7.09-4c-2.06-2.24-2.26-2.5-4.32-4.74l-9.16,2.11m12.73,16.84,7.83-2.23c-1.47-2.67-1.59-3-3.06-5.63l-9.48-.14m8.53,19.34,8.11-.25c-0.77-2.94-.82-3.26-1.59-6.21l-9.27-2.48m3.85,21,8.14,1.41c-0.16-3-.15-3.36-0.31-6.4l-8.41-4.21m-1.09,21,7.45,3.38c0.61-3,.7-3.29,1.31-6.27L531,504.27m-5.9,20.32,6.36,5.1c1.33-2.74,1.49-3,2.81-5.76l-5.52-8m-10.54,18.6,5.37,6.37c1.83-2.43,2-2.67,3.88-5.1l-3.77-8.72m-14.38,15.44,3.69,7.45c2.36-1.93,2.62-2.11,5-4l-1.6-9.44m-17.56,11.76,1.79,8.09c2.75-1.31,3.05-1.42,5.8-2.72l0.72-9.64m-19.82,7.42q-0.12,4.12-.25,8.24c3-.59,3.31-0.62,6.29-1.21l3.11-9.29m-21.16,2.68-2,8.1c3,0.05,3.36.09,6.41,0.13l4.92-8.32m-5.22-17.79a33.59,33.59,0,1,0-33.59-33.59,33.6,33.6,0,0,0,33.59,33.59h0Zm21.85,24.85,5.4,6.18-7.54,1.87-1.56-3.28-0.25-3.44m-1.75.49,0.4,5,1.74,3.52-5.26,1.3-1.69-3.06,1-1.86-0.21-4m-25.41-.25,1.54,7.78-7.47-2.14,0.29-3.62,1.48-3.07m-1.72-.53-2.18,4.6-0.25,3.92-5.21-1.49q0-1.75.06-3.5l1.76-1.13,1.93-3.79m-6.86-3.23L448.74,563l-6.52-4.22,1.33-3.38,2.29-2.49m-1.5-1-3.4,3.74-1.37,3.68L435,556.35l1.08-3.33,2-.57,2.9-3m-5.69-5-3,7.37-5.05-5.9L429.5,543l2.9-1.73m-1.16-1.38-4.31,2.61-2.36,3.13L421,541.52l2-2.89,2.09,0,3.61-2m-4-6.44-5,6.22-3.15-7.1,3-2.1,3.28-.83M422,524.71L417.16,526,414,528.3l-2.2-5,2.72-2.2,2,0.63,4-.92m-2.06-7.31-6.68,4.5-0.91-7.72,3.45-1.14,3.38,0.18m-0.23-1.79-5-.23-3.71,1.29-0.64-5.38,3.25-1.29,1.72,1.19,4,0.3m0.09-7.7-7.46,2.62,1.06-7.7,3.63-.23,3.23,1M418,489.7l-4.84-1.5-3.91.31,0.74-5.37,3.47-.43,1.37,1.59,4,1.37m2.22-7.24-8,.31,3.28-7,3.53,0.85,2.79,1.93m0.77-1.63L419.26,470l-3.83-.86,2.29-4.91,3.45,0.61,0.84,1.92,3.37,2.44m4.2-6.35-7.76-2,5.16-5.8,3.14,1.83,2.12,2.66m1.2-1.35-3.18-3.93-3.42-1.92,3.6-4,3.13,1.57,0.25,2.08,2.51,3.29m5.82-4.93-6.9-4.14,6.6-4.09,2.49,2.65,1.29,3.17m1.53-1-1.93-4.67-2.74-2.81,4.61-2.86,2.55,2.4L449.3,441l1.47,3.86m7-3.09-5.44-6,7.51-2,1.61,3.26,0.31,3.43m1.74-.49L463,435l-1.8-3.49,5.24-1.39,1.74,3L467.22,435l0.28,4.09m7.57-1-3.45-7.48,7.76,0.34,0.57,3.59-0.74,3.4m1.82,0,1-5-0.68-3.87,5.42,0.23,0.76,3.42-1.45,1.51-0.94,3.91m7.67,1.18-1.44-7.95,7.43,2.27-0.35,3.62-1.56,3.1m1.72,0.53,2.27-4.59,0.31-3.91,5.18,1.58-0.12,3.5-1.78,1.1-2,3.73m6.9,3.26,0.94-8.07,6.45,4.33-1.39,3.36-2.4,2.52m1.51,1,3.51-3.73,1.44-3.65,4.5,3-1.14,3.31-2,.53-2.94,3m5.73,5.09,3.21-7.5,5,6-2.28,2.83-3,1.74m1.17,1.38,4.42-2.58,2.42-3.09,3.45,4.18-2,2.85-2.09-.07-3.65,2m4.08,6.49,5.25-6.29,3,7.15-3,2.05-3.41.8m0.74,1.65,5-1.2,3.2-2.27,2.11,5-2.76,2.15-2-.67-4,.86m2.08,7.36,6.93-4.5,0.78,7.73-3.47,1.08-3.5-.24m0.24,1.8,5.09,0.32,3.73-1.22,0.54,5.39-3.27,1.24-1.7-1.22-4-.37m-0.08,7.77,7.7-2.56L548.17,510l-3.63.17L541.22,509m-0.27,1.78,4.89,1.6,3.92-.25-0.83,5.36-3.48.38-1.34-1.61-4-1.43m-2.23,7.3,8.16-.18-3.4,7-3.52-.91-2.83-2m-0.77,1.64,4.17,3,3.82,0.92-2.37,4.87-3.44-.67-0.8-1.93-3.31-2.49m-4.21,6.4,7.88,2.17L532,545.58l-3.11-1.88-2.12-2.75m-1.2,1.36,3.13,4,3.39,2-3.67,4-3.1-1.63-0.22-2.08-2.43-3.29m-5.84,5,6.94,4.33-6.67,4-2.45-2.69-1.25-3.23m-1.53,1,1.85,4.71,2.69,2.86-4.65,2.78-2.51-2.44,0.39-2.06-1.38-3.81m-24.37,6.89,3.53,7.32-7.77-.2L479,566.07l0.67-3.38m-1.81,0-1,5,0.74,3.86-5.42-.14-0.81-3.4,1.43-1.53,0.88-4m5.68,0.3A62.42,62.42,0,1,0,417,500.32a62.42,62.42,0,0,0,62.42,62.42h0Zm12.23,2.13,0.05,0.77-0.94,1.87,1.74,3,5.24-1.38L496,565.68l-0.17-1.79,1.72-.5,0,0.19,1.61,3.26,7.52-2-3.24-3.6a62.55,62.55,0,0,0,5.81-2.8l0.42,1.11-0.36,2.06,2.54,2.41,4.62-2.84-2.73-2.83-0.85-2.07q0.76-.48,1.5-1l0.24,0.6,2.48,2.66,6.62-4.07-4.57-2.77a64.93,64.93,0,0,0,4.91-4.49l1.06,1.41,0.24,2.08,3.12,1.59,3.63-4-3.42-1.94-1.77-2.21q0.59-.68,1.16-1.38l0.77,1L532,545.6l5.2-5.78-5.74-1.51a66.27,66.27,0,0,0,3.58-5.85l1.89,1.4,0.82,1.93,3.44,0.64,2.33-4.9-3.83-.89-2.77-1.92q0.38-.82.73-1.64l1.44,1,3.53,0.88,3.34-7-6.41.2a66.69,66.69,0,0,0,1.92-6.76l2.66,0.93,1.35,1.6,3.48-.4,0.79-5.37-3.92.28-3.56-1.13q0.14-.88.26-1.78l2,0.65,3.63-.2,1.13-7.69L543,504.4c0.08-1.35.13-2.72,0.13-4.09,0-1,0-2.06-.07-3.09l2.71,0.23,1.71,1.21,3.27-1.26L550.2,492l-3.72,1.25-3.7-.21q-0.1-.9-0.21-1.79l2.08,0.13,3.47-1.1-0.83-7.73-5.58,3.67a66.51,66.51,0,0,0-1.83-6.85l2.52-.55,2,0.65,2.75-2.16-2.14-5-3.19,2.29-3.35.83q-0.33-.83-0.68-1.65l1.72-.41,3-2.07-3.06-7.14-4,4.78a66.13,66.13,0,0,0-3.55-6l1.88-1,2.09,0.06,2-2.86L534.44,455l-2.41,3.1-2.54,1.5q-0.54-.71-1.1-1.4l1.08-.63,2.28-2.84-5-6-2.18,5.14a64.86,64.86,0,0,0-4.9-4.58l1.12-1.12,2-.53,1.13-3.31-4.51-3L518,445l-1.62,1.73q-0.72-.53-1.45-1l0.46-.48,1.38-3.36-6.46-4.32-0.57,4.93a62.65,62.65,0,0,0-5.82-2.87l0.52-1,1.78-1.1,0.12-3.5-5.19-1.58-0.31,3.91L500,438.06l-1.68-.57,0.09-.19,0.35-3.62-7.43-2.27,0.8,4.44a61.79,61.79,0,0,0-6.24-1l0.14-.6,1.45-1.51-0.75-3.42-5.42-.24L482,433l-0.34,1.61-1.79,0v0l-0.56-3.59-7.77-.35,2,4.25a62,62,0,0,0-6.31.93l-0.05-.78,0.94-1.87-1.74-3-5.24,1.38,1.79,3.49,0.17,1.79-1.72.5,0-.19-1.61-3.26-7.52,2,3.24,3.6a62.33,62.33,0,0,0-5.81,2.8l-0.42-1.11L449.6,439l-2.54-2.41-4.62,2.84,2.73,2.83,0.85,2.08q-0.76.48-1.5,1l-0.24-.6-2.48-2.66-6.62,4.07,4.57,2.77a64.83,64.83,0,0,0-4.91,4.49L433.77,452l-0.24-2.08-3.12-1.59-3.63,4,3.41,1.94,1.77,2.21q-0.59.68-1.16,1.38l-0.77-1L426.91,455l-5.2,5.78,5.74,1.51a66.1,66.1,0,0,0-3.58,5.85l-1.89-1.4-0.82-1.93-3.44-.64-2.33,4.9L419.2,470l2.77,1.92q-0.38.82-.73,1.64l-1.44-1-3.53-.88-3.34,7,6.41-.2a66.65,66.65,0,0,0-1.92,6.76l-2.65-.93-1.35-1.6-3.48.4-0.79,5.37,3.92-.28,3.56,1.14q-0.14.88-.26,1.77l-2-.65-3.63.2-1.13,7.69,6.24-2.13c-0.08,1.35-.13,2.71-0.13,4.09,0,1,0,2.06.07,3.09l-2.71-.23L411.38,502l-3.27,1.26,0.58,5.39,3.72-1.25,3.7,0.21q0.1,0.9.21,1.78l-2.08-.13-3.47,1.1,0.83,7.73,5.58-3.67a66.55,66.55,0,0,0,1.83,6.85l-2.52.55-2-.65-2.75,2.17,2.14,5,3.19-2.29,3.35-.83q0.33,0.83.68,1.65l-1.72.41-3,2.07,3.07,7.14,3.95-4.78a66.22,66.22,0,0,0,3.55,6l-1.88,1-2.09-.06-2,2.86,3.47,4.17,2.41-3.1L429.4,541q0.54,0.71,1.1,1.4l-1.08.62-2.28,2.84,5,6,2.18-5.13a64.88,64.88,0,0,0,4.9,4.58l-1.12,1.12-2,.53-1.13,3.31,4.51,3,1.43-3.66,1.62-1.73q0.72,0.53,1.45,1l-0.46.48-1.38,3.36,6.46,4.32,0.57-4.92a62.73,62.73,0,0,0,5.81,2.87l-0.52,1-1.78,1.1-0.12,3.5,5.19,1.58,0.31-3.91,0.85-1.72,1.68,0.57-0.09.19-0.35,3.62,7.43,2.27-0.8-4.44a61.82,61.82,0,0,0,6.24,1l-0.14.6-1.46,1.51,0.75,3.42,5.42,0.24-0.67-3.87,0.34-1.61,1.79,0v0l0.56,3.59,7.77,0.35-2-4.25a62.06,62.06,0,0,0,6.3-.93h0Z" transform="translate(-408 -429)"/></svg>