<svg id="Слой_1" data-name="Слой 1" xmlns="http://www.w3.org/2000/svg" viewBox="0 0 502 312.25">
	<defs>
		<style>.cls-1,.cls-2,.cls-4,.cls-5{fill:none;stroke:#1d1d1b;stroke-miterlimit:10;}.cls-1{stroke-width:2px;}.cls-2{stroke-width:20px;}.cls-3{fill:#1d1d1b;}.cls-4{stroke-width:60px;}.cls-5{stroke-width:40px;}
		</style>
	</defs>
	<title>Карта</title>

	<path class="cls-1" d="M117,95H567s25-.69,25,24.32V379s-2.08,26-24.87,26H117s-25-3.31-25-26V119s1-24.25,24.5-24.25" transform="translate(-91 -93.75)"/>

	<path class="cls-2" d="M133.67,254.33c7.47-8.67,17.87-17.69,29.33-16.67,16.07,1.43,20,21.31,35.33,22,15.93,0.72,19.87-20.39,38-21.33,17-.89,21.82,17.24,38.67,16,16.16-1.19,17.14-18.28,34-22,22.17-4.9,31.53,22.22,56.67,20.67s31.69-29.47,52.67-26.67c17.49,2.34,20,22.7,36,22.67,16.69,0,21.84-22.22,38.67-23.33,8.09-.54,19.66,3.74,34.67,25.33" transform="translate(-91 -93.75)"/>

	<path class="cls-2" d="M525.67,329.67c0.39-1.21,2.47-7.27,7.33-8.67,7.3-2.09,17.1,7.43,16,15.33s-12.3,10.74-17.33,11.33c-5.87.69-15.24-.45-19.33-6.67-3.39-5.15.23-8.65-2.67-15.33-3.77-8.7-13.91-12-18-13.33-2.73-.89-19.48-6.34-26.67,2-4.28,5-3.14,12.46-2,20,1,6.51,1.66,10.94,5.33,14,6,5,16.25,3.29,22.67-1.33a22.35,22.35,0,0,0,8-11.33" transform="translate(-91 -93.75)"/>

	<path class="cls-3" d="M333.67,319.67a123.88,123.88,0,0,1-11,51.19h2.59c-5-6.78,5.27-19.5,9.28-25.19a118.08,118.08,0,0,1,17.73-19.77l-2.51-.66c1.43,5.69.49,11.21-1,16.79-0.32,1.22-1.15,5.25-2.37,5.66q-4-3.47-.49-6.11,1.2-1.38,2.44-2.73a168.57,168.57,0,0,1,20.15-18.65L366,318.74a49,49,0,0,0-2.22,18.78,1.51,1.51,0,0,0,2.8.76A82.32,82.32,0,0,0,376,316.15l-2.95-.4L372.39,339a1.51,1.51,0,0,0,2.95.4l6-21.23-2.95-.4,1.11,13.3a1.51,1.51,0,0,0,2.8.76,101.71,101.71,0,0,0,15.13-34.24,1.51,1.51,0,0,0-2.51-1.46,131.17,131.17,0,0,1-18.62,14.69l2.26,1.3A26.75,26.75,0,0,1,384.19,298c0.94-1.2-.3-3.46-1.82-2.36a131.66,131.66,0,0,0-23.18,21.48,1.52,1.52,0,0,0,.66,2.51,8,8,0,0,0,4.89,0,1.5,1.5,0,0,0-.8-2.89q-25.84,5.7-52.05,9.33l1.69,2.2C317.8,321,328.93,317.39,336,313.7l24.76-12.84,51.29-26.6c1.71-.89.2-3.48-1.51-2.59L355.76,300.1l-26.53,13.76c-6.52,3.38-14.39,6.25-18.23,12.94a1.52,1.52,0,0,0,1.69,2.2q26.21-3.63,52.05-9.33l-0.8-2.89-3.3,0,0.66,2.51a128.55,128.55,0,0,1,22.57-21l-1.82-2.36a30.51,30.51,0,0,0-6.51,16.26,1.51,1.51,0,0,0,2.26,1.3A135.41,135.41,0,0,0,397,298.26l-2.51-1.46a99.48,99.48,0,0,1-14.83,33.53l2.8,0.76-1.11-13.3a1.51,1.51,0,0,0-2.95-.4l-6,21.23,2.95,0.4L376,315.75a1.51,1.51,0,0,0-2.95-.4,79.68,79.68,0,0,1-9.09,21.4l2.8,0.76a47,47,0,0,1,2.12-18c0.5-1.57-1.44-2.3-2.51-1.46a168.58,168.58,0,0,0-20.15,18.65c-2.82,3.09-8.29,8.36-4.62,12.88,3,3.72,7.11.8,8.71-2.58a35.89,35.89,0,0,0,2.3-22.59,1.52,1.52,0,0,0-2.51-.66,120.73,120.73,0,0,0-21,24.58c-3.95,6.15-11.81,16.69-6.46,24,0.59,0.81,2.08,1.13,2.59,0a127.46,127.46,0,0,0,11.41-52.7,1.5,1.5,0,0,0-3,0h0Z" transform="translate(-91 -93.75)"/>

	<path class="cls-4" d="M92,159l500,1.5" transform="translate(-91 -93.75)"/>

	<path class="cls-5" d="M149,352l98.5,1" transform="translate(-91 -93.75)"/>
</svg>