<svg id="Слой_1" data-name="Слой 1" xmlns="http://www.w3.org/2000/svg" viewBox="0 0 564.49 286.57"><defs><style>.cls-1{fill:none;stroke:#000;stroke-miterlimit:10;}</style></defs><title>Облако</title><path class="cls-1" d="M480,473.77a74.78,74.78,0,0,1,96.62,44.07l0.24,0.48,0.52-.25a48,48,0,0,1,58.2,73.07l-0.67.85,1.55-.05c0.76,0,1.53-.05,2.3-0.05A81,81,0,1,1,638.47,754c-1,0-2.81,0-3.8-.07l-1.16,0v0.63H473" transform="translate(-155.64 -468.43)"/><path class="cls-1" d="M473,754.5H217.18c-33.66,0-61-27.64-61-61.31a61.16,61.16,0,0,1,53.73-60.73l0.54-.13-0.11-.57A61.08,61.08,0,0,1,270,558a60.41,60.41,0,0,1,37.65,13l0.82,0.64,0-1.42c0-.14,0-0.28,0-0.42a68.81,68.81,0,0,1,68.73-68.73,68.12,68.12,0,0,1,44.07,15.94,69.85,69.85,0,0,1,10.95,11.59l0.67,0.89,0.22-1.09A74.25,74.25,0,0,1,480,473.77" transform="translate(-155.64 -468.43)"/></svg>