<svg id="Слой_1" data-name="Слой 1" xmlns="http://www.w3.org/2000/svg" viewBox="0 0 564.49 286.57"><defs><style>.cls-1{fill:none;stroke:#000;stroke-miterlimit:10;}</style></defs><title>Облачко</title>

<path class="cls-1" d="M480,473.77a74.78,74.78,0,0,1,96.62,44.07l0.24,0.48,0.52-.25a48,48,0,0,1,58.2,73.07l-0.67.85,1.55-.05c0.76,0,1.53-.05,2.3-0.05A81,81,0,1,1,638.47,754c-1,0-2.81,0-3.8-.07l-1.16,0v0.63H473" transform="translate(-155.64 -468.43)"/>

<path class="cls-1" d="M473,754.5H217.18c-33.66,0-61-27.64-61-61.31a61.16,61.16,0,0,1,53.73-60.73l0.54-.13-0.11-.57A61.08,61.08,0,0,1,270,558a60.41,60.41,0,0,1,37.65,13l0.82,0.64,0-1.42c0-.14,0-0.28,0-0.42a68.81,68.81,0,0,1,68.73-68.73,68.12,68.12,0,0,1,44.07,15.94,69.85,69.85,0,0,1,10.95,11.59l0.67,0.89,0.22-1.09A74.25,74.25,0,0,1,480,473.77" transform="translate(-155.64 -468.43)"/>

<path class="cls-1" d="M476.57,506.56A62.73,62.73,0,0,0,437,552.61l-0.26.95-0.6-.73a58.79,58.79,0,0,0-9.23-9.74A57.85,57.85,0,0,0,332,587.5c0,0.12,0,.24,0,0.36l0,1.2-0.69-.54a50.8,50.8,0,0,0-31.66-10.94,51.37,51.37,0,0,0-50.22,62l0.09,0.48-0.46.11a51.29,51.29,0,0,0-45.18,50.93c0,27.15,22.62,50.41,51.33,51.41H471" transform="translate(-155.64 -468.43)"/>

<path class="cls-1" d="M471.69,562.18a41.85,41.85,0,0,0-26.4,30.72l-0.18.64-0.4-.48a39.2,39.2,0,0,0-6.15-6.49,38.58,38.58,0,0,0-63.26,29.61c0,0.08,0,.16,0,0.24v0.8l-0.46-.36a33.88,33.88,0,0,0-21.11-7.29,34.25,34.25,0,0,0-33.49,41.34l0.06,0.32-0.3.07a34.19,34.19,0,0,0-30.13,33.95c0,18.1,15.09,33.27,34.23,34.27H468" transform="translate(-155.64 -468.43)"/>

<path class="cls-1" d="M469.76,588.51a31.25,31.25,0,0,1,11-2,31.62,31.62,0,0,1,29.56,20.59l0.08,0.21,0.21-.1a20,20,0,0,1,8.66-1.95,20.19,20.19,0,0,1,20.17,20.17A20,20,0,0,1,535,638l-0.28.36,0.65,0,1,0a34.08,34.08,0,1,1-.11,68.17l-1.43,0H534.5v0.09H467" transform="translate(-155.64 -468.43)"/>

<path class="cls-1" d="M469,730.5H290.48c-23.55,0-42.7-19.42-42.7-43A42.83,42.83,0,0,1,285.37,645l0.38-.11-0.08-.41a42.74,42.74,0,0,1,41.78-51.58,42.26,42.26,0,0,1,26.34,9.1l0.57,0.45,0-1c0-.1,0-0.2,0-0.3a48.14,48.14,0,0,1,48.08-48.08,47.65,47.65,0,0,1,30.83,11.15,48.87,48.87,0,0,1,7.66,8.11l0.47,0.62,0.16-.76A51.54,51.54,0,0,1,474.1,534" transform="translate(-155.64 -468.43)"/>

<path class="cls-1" d="M471,742.5H604.5v-0.25l1.21,0c0.84,0,2.58.06,3.4,0.06a68.14,68.14,0,1,0,.24-136.28c-0.65,0-1.28,0-1.93,0l-1.3,0,0.57-.71a39.9,39.9,0,0,0,8.72-25,40.37,40.37,0,0,0-40.33-40.33,40,40,0,0,0-17.3,3.9l-0.42.21-0.16-.42a63.19,63.19,0,0,0-59.09-41.14,61.58,61.58,0,0,0-21.74,4" transform="translate(-155.64 -468.43)"/>

<path class="cls-1" d="M468,719.5h89.5v-0.1h0.76c0.56,0,1.7,0,2.24,0a45.45,45.45,0,1,0,.14-90.9c-0.43,0-.86,0-1.29,0l-0.87,0,0.38-.47a26.61,26.61,0,0,0,5.81-16.69,26.93,26.93,0,0,0-26.9-26.9,26.66,26.66,0,0,0-11.54,2.6l-0.28.14-0.11-.28a42.14,42.14,0,0,0-54.09-24.83" transform="translate(-155.64 -468.43)"/>

<path class="cls-1" d="M467,706.5H359.63A25.87,25.87,0,0,1,356.56,655l0.23-.1,0-.26a26,26,0,0,1-.56-5.34,25.68,25.68,0,0,1,25.64-25.65,25.37,25.37,0,0,1,15.82,5.46l0.34,0.27v-0.6c0-.06,0-0.12,0-0.18a28.91,28.91,0,0,1,28.87-28.87,28.62,28.62,0,0,1,18.51,6.7,29.34,29.34,0,0,1,4.6,4.87l0.28,0.37,0.09-.46A30.87,30.87,0,0,1,470,588.39" transform="translate(-155.64 -468.43)"/>

<path class="cls-1" d="M473.9,534.18A52.39,52.39,0,0,1,541.51,565l0.17,0.34,0.36-.17a33.54,33.54,0,0,1,40.71,51.11l-0.47.59,1.08,0c0.53,0,1.07,0,1.61,0a56.68,56.68,0,1,1-.17,113.37c-0.68,0-1.88,0-2.57-.05H581.5v0.35H469" transform="translate(-155.64 -468.43)"/></svg>