<svg id="Слой_1" data-name="Слой 1" xmlns="http://www.w3.org/2000/svg" viewBox="0 0 71.01 103.44"><defs><style>.cls-1,.cls-2{fill:none;stroke-linecap:round;stroke-miterlimit:10;}.cls-1{stroke:red;}.cls-2{stroke:#fcee21;}</style></defs><title>Огонь</title><path class="cls-1" d="M67.35,168.22a35.1,35.1,0,0,1-14.85-9c-1.45-1.49-11.38-12-9.54-24,0.76-5,3-5.45,5.51-13.88,1.41-4.76,2-9.77,2.92-14.93,3.83,2,5.16,6.45,6.5,11.18a157.58,157.58,0,0,0,5.86,16.77c0.67,1.63,2.69,2.72,4.69,3.81a39,39,0,0,1-6.72-14.23c-2.84-12.1,1-22,2.86-26.81,7.5-19.14,24.26-28.34,29.69-31" transform="translate(-42.23 -65.58)"/><path class="cls-2" d="M80.28,81.63l0-.15c-9.09,8.36-14.81,17.71-16.69,29.28-2,12.13,2.55,22.16,10.69,31-7.92,1.88-14.95-4.19-21.65-18.18-8.22,12.35-7.06,33.89,14.71,44.62" transform="translate(-42.23 -65.58)"/><path class="cls-2" d="M91.89,168.52c0.22-.22.56-0.57,1-1s0.73-.63.77-0.65c13.68-10.13,16.77-25.21,7.74-39.6A70.55,70.55,0,0,0,92,115.7c-7.12-7.29-9.71-11.9-11-15.21-1.4-3.5-2.94-9.68-.69-18.87" transform="translate(-42.23 -65.58)"/><path class="cls-1" d="M94.26,66.1C84.73,79,86.76,91,94.06,103c5.36,8.81,11.14,17.45,15.52,26.73,7.69,16.29,1,31.9-15.8,38.64a8.29,8.29,0,0,1-1.89.16" transform="translate(-42.23 -65.58)"/></svg>